<?xml version="1.0" encoding="utf-8"?>
<!-- Generator: Adobe Illustrator 19.0.0, SVG Export Plug-In . SVG Version: 6.00 Build 0)  -->
<svg version="1.1" id="Layer_1" xmlns="http://www.w3.org/2000/svg" xmlns:xlink="http://www.w3.org/1999/xlink" x="0px" y="0px"
	 viewBox="0 0 500 500" style="enable-background:new 0 0 500 500; fill: #3b82f6;" xml:space="preserve">
<g id="XMLID_1_">
	<path id="XMLID_15_" d="M123.3,60.8c-0.8,0.4-0.9,0.9-1.6,1.4c-13,8-24.8,17.2-35.9,27.4c0,0,0.1,0,0.1,0.1c-2,1.8-3.9,3.7-5.8,5.6
		c0,0,0,0,0,0.1c-10.6,10.5-20.1,22-28.4,34.3c-0.7,1-1.3,2-1.9,3c-6.5,10-12.2,20.5-17,31.5c0,0.1-0.1,0.3-0.2,0.4
		c-4.8,10.9-8.7,22.3-11.6,34c-2.8,11.2-4.7,22.6-5.6,34.4c-0.4,5.7-0.7,11.4-0.7,17.2s0.2,11.5,0.7,17.2
		c0.9,11.8,2.8,23.2,5.6,34.4c2.9,11.7,6.8,23.1,11.6,34c0,0.1,0.1,0.3,0.2,0.4c4.8,11,10.5,21.5,17,31.5c0.6,1,1.3,2,1.9,3
		c8.3,12.3,17.8,23.8,28.4,34.3c0,0,0,0,0.1,0.1c1.9,1.9,3.8,3.7,5.8,5.6c0,0,0,0,0.1,0.1c11,10.2,23.2,19.4,36.2,27.4
		c0.7,0.5,0.1,1,0.9,1.4c10.8,6.5,23.7,12.2,32.7,16.9V43.9C147,48.6,134.1,54.3,123.3,60.8z M119,395.2c-7-7.5-16.3-15.8-24.1-24.8
		c-3.7-4.2-6.4-8.6-9.6-13.1c0,0,0.3-0.1,0.3-0.2c-4.9-6.7-9.1-13.8-13-21.1c-5.8-10.8-10.4-22.2-14-34c0-0.1,0-0.2-0.1-0.4
		c-3.3-11.1-5.5-22.6-6.7-34.4c-0.5-5.7-0.8-11.4-0.8-17.2s0.3-11.5,0.8-17.2c1.1-11.8,3.4-23.3,6.7-34.4c0-0.1,0.1-0.2,0.1-0.3
		c3.5-11.9,8.3-23.3,14.1-34c3.9-7.3,8.4-14.4,13.2-21.1c0,0,0.1-0.1,0.1-0.2c3.3-4.5,5.1-8.9,8.8-13.2c7.8-9,17.1-17.3,24.1-24.8
		V395.2z"/>
	<path id="XMLID_134_" d="M484.5,232.8c-0.9-11.8-2.8-23.2-5.6-34.4C476,186.5,472,175,467.2,164c-5.1-11.7-11.2-22.8-18.3-33.3
		c-0.2-0.4-0.4-0.7-0.7-1.1c-8.3-12.3-17.9-23.9-28.5-34.4c-2.3-2.3-4.7-4.5-7.1-6.7c-11.1-10.1-23.3-19.2-36.3-27.1
		c-0.3-0.2-2.2-0.4-2.5-0.6C362.7,54.1,353,48.3,337,43.4v413.2c16-4.9,25.7-10.7,36.9-17.4c0.3-0.2,1.4-0.4,1.7-0.6
		c13-7.9,25.5-17,36.7-27.1c2.4-2.2,5-4.5,7.3-6.7c10.6-10.5,20.3-22.1,28.6-34.4c0.2-0.3,0.5-0.7,0.7-1.1
		c7-10.5,13.2-21.7,18.3-33.3c4.8-11,8.8-22.5,11.7-34.4c2.8-11.2,4.7-22.6,5.6-34.4c0.4-5.7,0.7-11.4,0.7-17.2
		C485.2,244.2,485,238.5,484.5,232.8z M373,103.8c12,7.6,20.4,16.1,28.4,25.4c0.1,0.1,1.1,0.3,1.2,0.4c3.2,3.7,6.7,7.5,9.7,11.4
		c5.4,7.2,10.4,14.8,14.7,22.8c0,0.1,0.2,0.1,0.2,0.2c5.8,10.9,10.7,23.5,14.2,35.5c3.3,11.1,5.6,20.5,6.7,35.5H373V103.8z
		 M441.4,303c-3.5,12-8.3,22.8-14.2,33.7c0,0.1-0.1-0.2-0.1-0.2c-4.3,8-9.1,15.4-14.5,22.6c-2.9,3.9-7.7,7.7-10.9,11.3
		c-8.1,9.4-16.7,18-28.7,25.7V270h75.1C447,280,444.7,291.9,441.4,303z"/>
	<path id="XMLID_70_" d="M301,32.3V200h-37V62h-36v173h73v232.7c-8,2.6-22.5,4.4-34.9,5.3c-5.8,0.4-10.9,0.6-16.8,0.6
		c-6.3,0-12.2-0.2-18.4-0.7c-12.3-1-25.7-2.8-37.5-5.5c0,0,2.6,0-1.4,0V304h36v138h36V270h-72V32.6c4,0,1.6,0,1.6,0
		c11.7-2.7,24.6-4.5,36.9-5.5c6.2-0.5,12.8-0.7,19.2-0.7c5.9,0,10.5,0.2,16.3,0.6C278.3,27.9,293,29.6,301,32.3z"/>
</g>
</svg>
